<?xml version="1.0" encoding="UTF-8" standalone="no"?>
<svg
   xmlns:dc="http://purl.org/dc/elements/1.1/"
   xmlns:cc="http://creativecommons.org/ns#"
   xmlns:rdf="http://www.w3.org/1999/02/22-rdf-syntax-ns#"
   xmlns:svg="http://www.w3.org/2000/svg"
   xmlns="http://www.w3.org/2000/svg"
   xmlns:sodipodi="http://sodipodi.sourceforge.net/DTD/sodipodi-0.dtd"
   xmlns:inkscape="http://www.inkscape.org/namespaces/inkscape"
   inkscape:version="1.0 (4035a4fb49, 2020-05-01)"
   sodipodi:docname="Project4_Team_Icon_No_Text_v1_2.svg"
   viewBox="0 0 750 450"
   height="450"
   width="750"
   id="svg62"
   version="1.1">
  <metadata
     id="metadata68">
    <rdf:RDF>
      <cc:Work
         rdf:about="">
        <dc:format>image/svg+xml</dc:format>
        <dc:type
           rdf:resource="http://purl.org/dc/dcmitype/StillImage" />
        <dc:title></dc:title>
      </cc:Work>
    </rdf:RDF>
  </metadata>
  <defs
     id="defs66" />
  <sodipodi:namedview
     inkscape:current-layer="g70"
     inkscape:window-maximized="1"
     inkscape:window-y="-8"
     inkscape:window-x="-8"
     inkscape:cy="225"
     inkscape:cx="375"
     inkscape:zoom="1.436"
     showgrid="false"
     id="namedview64"
     inkscape:window-height="1017"
     inkscape:window-width="1920"
     inkscape:pageshadow="2"
     inkscape:pageopacity="0"
     guidetolerance="10"
     gridtolerance="10"
     objecttolerance="10"
     borderopacity="1"
     bordercolor="#666666"
     pagecolor="#ffffff" />
  <g
     id="g70"
     inkscape:label="Image"
     inkscape:groupmode="layer">
    <path
       id="path76"
       d="M 0,225 V 0 h 124.96923 124.96922 l 0.28078,12.25 0.28078,12.25 24.5,0.5 24.5,0.5 0.5,12 0.5,12 11.99999,0.5 12,0.5 0.5,24.5 0.5,24.500001 12,0.499999 12,0.5 V 225 349.5 l -12,0.5 -12,0.5 -0.5,24.5 -0.5,24.5 -12,0.5 -11.99999,0.5 -0.5,12 -0.5,12 -24.5,0.5 -24.5,0.5 -0.28078,12.25 -0.28078,12.25 H 124.96923 0 Z m 225.00001,112.5 0.5,-12 12,-0.5 12,-0.5 V 225 125.5 l -12,-0.5 -12,-0.5 -0.5,-12 -0.5,-12 h -62 H 100.5 L 100.24274,224 c -0.1415,67.925 -0.0418,124.06594 0.22154,124.75764 0.37894,0.99531 13.36514,1.2039 62.25728,1 L 224.50001,349.5 Z M 400,225 V 0 h 37.46922 37.46922 l 0.28078,12.25 0.28078,12.25 12,0.5 12,0.5 0.5,24.5 0.5,24.5 12,0.5 12,0.5 0.5,24.5 0.5,24.5 12,0.5 12,0.5 0.5,12 0.5,12 h 24.5 24.5 l 0.5,-12 0.5,-12 12,-0.5 12,-0.5 0.5,-24.5 0.5,-24.5 12,-0.5 12,-0.5 0.5,-24.5 0.5,-24.5 12,-0.5 12,-0.5 0.28078,-12.25 L 675.06156,0 H 712.53078 750 V 225 450 H 700.00431 650.00862 L 649.75431,337.75 649.5,225.5 h -12 -12 l -0.5,24.5 -0.5,24.5 -12,0.5 -12,0.5 -0.5,12 -0.5,12 H 575 550.5 l -0.5,-12 -0.5,-12 -12,-0.5 -12,-0.5 -0.5,-24.5 -0.5,-24.5 h -12 -12 L 500.24569,337.75 499.99138,450 H 449.99569 400 Z"
       style="fill:#000000" />
  </g>
</svg>
