<?xml version="1.0" encoding="UTF-8" standalone="no"?>
<svg
   xmlns:dc="http://purl.org/dc/elements/1.1/"
   xmlns:cc="http://creativecommons.org/ns#"
   xmlns:rdf="http://www.w3.org/1999/02/22-rdf-syntax-ns#"
   xmlns:svg="http://www.w3.org/2000/svg"
   xmlns="http://www.w3.org/2000/svg"
   xmlns:sodipodi="http://sodipodi.sourceforge.net/DTD/sodipodi-0.dtd"
   xmlns:inkscape="http://www.inkscape.org/namespaces/inkscape"
   inkscape:version="1.0 (4035a4fb49, 2020-05-01)"
   sodipodi:docname="Project4_Team_Icon_v1_2.svg"
   viewBox="0 0 750 497"
   height="497"
   width="750"
   id="svg48"
   version="1.1">
  <metadata
     id="metadata54">
    <rdf:RDF>
      <cc:Work
         rdf:about="">
        <dc:format>image/svg+xml</dc:format>
        <dc:type
           rdf:resource="http://purl.org/dc/dcmitype/StillImage" />
        <dc:title></dc:title>
      </cc:Work>
    </rdf:RDF>
  </metadata>
  <defs
     id="defs52" />
  <sodipodi:namedview
     inkscape:current-layer="g56"
     inkscape:window-maximized="1"
     inkscape:window-y="-8"
     inkscape:window-x="-8"
     inkscape:cy="248.5"
     inkscape:cx="375"
     inkscape:zoom="1.436"
     showgrid="false"
     id="namedview50"
     inkscape:window-height="1017"
     inkscape:window-width="1920"
     inkscape:pageshadow="2"
     inkscape:pageopacity="0"
     guidetolerance="10"
     gridtolerance="10"
     objecttolerance="10"
     borderopacity="1"
     bordercolor="#666666"
     pagecolor="#ffffff" />
  <g
     id="g56"
     inkscape:label="Image"
     inkscape:groupmode="layer">
    <path
       id="path60"
       d="M 2.22255,482.75 2.5,468.5 h 4 4 l 0.27746,14.25 0.27745,14.25 H 6.5 1.94509 Z m 19.25321,12.85406 c -3.0325,-1.32126 -6.00089,-5.94536 -4.92945,-7.679 0.94828,-1.53434 8.09234,-1.06538 9.49374,0.6232 1.776296,2.1403 5.459952,1.46327 5.459952,-1.0035 0,-1.45719 -0.96349,-2.15542 -3.782498,-2.74112 -8.944754,-1.85845 -12.611324,-6.33886 -9.591034,-11.71988 2.14113,-3.8147 5.61507,-5.2227 11.79297,-4.77971 4.411165,0.3163 5.861714,0.90277 7.796662,3.15229 1.307474,1.52002 2.209072,3.27668 2.003551,3.90367 -0.540245,1.64816 -6.667683,2.00576 -9.39136,0.54809 -2.578045,-1.37972 -3.869333,-0.76042 -3.021458,1.44911 0.30465,0.79391 2.457451,1.76507 4.784001,2.15814 7.192029,1.21508 10.836419,7.01503 7.879522,12.54004 -2.422381,4.52626 -12.02292,6.36837 -18.494598,3.54867 z M 47.222545,482.75 47.500002,468.5 h 4 4 l 0.277457,14.25 0.277456,14.25 h -4.554913 -4.554913 z m 16,0 0.277457,-14.25 3.180281,-0.30816 c 2.954583,-0.28629 3.542232,0.22823 8.280474,7.25 2.805106,4.15699 5.516765,7.55816 6.025909,7.55816 0.509144,0 1.057931,-3.2625 1.219526,-7.25 l 0.29381,-7.25 h 3 3 l 0.277457,14.25 0.277456,14.25 h -3.467608 c -3.187714,0 -3.886107,-0.60538 -8.652355,-7.5 -2.85161,-4.125 -5.578542,-7.5 -6.059848,-7.5 -0.481306,0 -0.875102,3.375 -0.875102,7.5 v 7.5 h -3.527457 -3.527456 z m 33,0 0.277457,-14.25 H 106.5 h 10 v 3 c 0,2.90909 -0.16667,3.01515 -5.5,3.5 -4,0.36364 -5.5,0.90909 -5.5,2 0,1.03704 1.38889,1.65432 4.5,2 4.22222,0.46914 4.5,0.68519 4.5,3.5 0,2.81481 -0.27778,3.03086 -4.5,3.5 l -4.5,0.5 -0.30226,5.25 -0.30226,5.25 h -4.4752 -4.475191 z M 129,495.24845 c -4.19219,-2.09424 -6.99689,-7.20445 -6.99689,-12.74845 0,-8.351 5.93392,-14.49689 13.99689,-14.49689 10.70625,0 17.02537,10.8204 12.56018,21.50711 -2.8288,6.77026 -12.06837,9.4808 -19.56018,5.73823 z m 10.17126,-6.90344 c 2.35441,-2.13071 2.45794,-8.99227 0.17375,-11.51627 C 135.76435,472.87215 131,476.0108 131,482.32625 c 0,6.51612 4.2018,9.61107 8.17126,6.01876 z M 156.22254,482.75 156.5,468.5 l 9.75913,-0.28632 c 9.25377,-0.2715 9.88812,-0.15734 12.25,2.20454 3.14152,3.14152 3.31071,8.2698 0.39514,11.97635 -1.92169,2.44304 -1.96966,2.85669 -0.57761,4.98122 0.83496,1.27432 2.20508,3.96107 3.0447,5.97057 L 182.89795,497 h -4.87567 -4.87567 l -2.5584,-5.5883 c -3.1334,-6.84425 -4.97439,-6.70187 -5.39047,0.4169 L 164.89548,497 h -4.4752 -4.47519 z M 171,477 c 0,-1.45377 -0.66667,-2 -2.44098,-2 -2.63389,0 -4.05299,1.39172 -3.05902,3 0.33992,0.55 1.71648,1 3.05902,1 1.77431,0 2.44098,-0.54623 2.44098,-2 z m 16.22254,5.75 L 187.5,468.5 h 5.44929 5.44928 l 1.55477,6.3106 c 0.85512,3.47082 2.00112,6.31059 2.54666,6.31059 0.54554,0 1.69154,-2.83977 2.54666,-6.31059 l 1.55477,-6.3106 h 5.44928 5.44929 l 0.27746,14.25 0.27745,14.25 H 214.52746 211 v -7.5 c 0,-4.125 -0.41162,-7.5 -0.91472,-7.5 -0.50309,0 -1.71037,3.375 -2.68284,7.5 -1.7356,7.36201 -1.8258,7.5 -4.90244,7.5 -3.07664,0 -3.16684,-0.13799 -4.90244,-7.5 -0.97247,-4.125 -2.17975,-7.5 -2.68284,-7.5 -0.5031,0 -0.91472,3.375 -0.91472,7.5 v 7.5 h -3.52746 -3.52745 z m 34.80126,14 c 0.0131,-0.1375 1.99173,-6.55 4.39697,-14.25 l 4.37317,-14 h 6.26532 6.26531 l 4.76293,14.25 4.76292,14.25 h -4.85566 c -4.27415,0 -4.89393,-0.26946 -5.17521,-2.25 -0.28273,-1.99073 -0.89571,-2.25 -5.31955,-2.25 -4.42384,0 -5.03682,0.25927 -5.31955,2.25 -0.28204,1.98589 -0.89829,2.25 -5.25,2.25 -2.71175,0 -4.91974,-0.1125 -4.90665,-0.25 z m 17.19746,-14.76973 c -0.44334,-3.87727 -2.01751,-4.64638 -3.19125,-1.55919 -1.21553,3.19708 -0.5323,4.83365 1.81323,4.3433 1.09734,-0.22941 1.56264,-1.16948 1.37802,-2.78411 z M 259.78383,486.25 259.5,475.5 l -4,-0.5 c -3.66667,-0.45833 -4,-0.75 -4,-3.5 v -3 h 13 13 v 3 c 0,2.75 -0.33333,3.04167 -4,3.5 l -4,0.5 -0.28383,10.75 -0.28383,10.75 H 264.5 260.06766 Z m 22.43871,-3.5 L 282.5,468.5 h 4 4 l 0.27746,14.25 0.27745,14.25 H 286.5 281.94509 Z M 304,495.24845 c -4.19219,-2.09424 -6.99689,-7.20445 -6.99689,-12.74845 0,-8.351 5.93392,-14.49689 13.99689,-14.49689 10.70625,0 17.02537,10.8204 12.56018,21.50711 -2.8288,6.77026 -12.06837,9.4808 -19.56018,5.73823 z m 10.17126,-6.90344 c 2.35441,-2.13071 2.45794,-8.99227 0.17375,-11.51627 C 310.76435,472.87215 306,476.0108 306,482.32625 c 0,6.51612 4.2018,9.61107 8.17126,6.01876 z M 331.22254,482.75 331.5,468.5 l 3.18028,-0.30816 c 2.95458,-0.28629 3.54223,0.22823 8.28047,7.25 2.80511,4.15699 5.51677,7.55816 6.02591,7.55816 0.50915,0 1.05794,-3.2625 1.21953,-7.25 L 350.5,468.5 h 3 3 l 0.27746,14.25 0.27745,14.25 h -3.46761 c -3.18771,0 -3.8861,-0.60538 -8.65235,-7.5 -2.85161,-4.125 -5.57854,-7.5 -6.05985,-7.5 -0.4813,0 -0.8751,3.375 -0.8751,7.5 v 7.5 h -3.52746 -3.52745 z m 69,0 L 400.5,468.5 h 4 4 l 0.27746,14.25 0.27745,14.25 H 404.5 399.94509 Z m 19.25322,12.85406 c -3.0325,-1.32126 -6.00089,-5.94536 -4.92945,-7.679 0.94828,-1.53434 8.09234,-1.06538 9.49374,0.6232 1.77629,2.1403 5.45995,1.46327 5.45995,-1.0035 0,-1.45719 -0.96349,-2.15542 -3.7825,-2.74112 -8.94475,-1.85845 -12.61133,-6.33886 -9.59104,-11.71988 2.14114,-3.8147 5.61508,-5.2227 11.79298,-4.77971 4.41116,0.3163 5.86171,0.90277 7.79666,3.15229 1.30747,1.52002 2.20907,3.27668 2.00355,3.90367 -0.54024,1.64816 -6.66768,2.00576 -9.39136,0.54809 -2.57804,-1.37972 -3.86933,-0.76042 -3.02146,1.44911 0.30465,0.79391 2.45745,1.76507 4.784,2.15814 7.19203,1.21508 10.83642,7.01503 7.87953,12.54004 -2.42238,4.52626 -12.02292,6.36837 -18.4946,3.54867 z M 445.22254,482.75 445.5,468.5 l 9.75913,-0.28632 c 9.25377,-0.2715 9.88812,-0.15734 12.25,2.20454 3.14152,3.14152 3.31071,8.2698 0.39514,11.97635 -1.92169,2.44304 -1.96966,2.85669 -0.57761,4.98122 0.83496,1.27432 2.20508,3.96107 3.0447,5.97057 L 471.89795,497 h -4.87567 -4.87567 l -2.5584,-5.5883 c -3.1334,-6.84425 -4.97439,-6.70187 -5.39047,0.4169 L 453.89548,497 h -4.4752 -4.47519 z M 460,477 c 0,-1.45377 -0.66667,-2 -2.44098,-2 -2.63389,0 -4.05299,1.39172 -3.05902,3 0.33992,0.55 1.71648,1 3.05902,1 1.77431,0 2.44098,-0.54623 2.44098,-2 z m 16.22254,5.75 L 476.5,468.5 h 11 11 v 3 c 0,2.96101 -0.0815,3.0065 -6.26695,3.5 -3.44682,0.275 -6.26787,0.95 -6.26901,1.5 -0.001,0.55 2.59399,1.225 5.76695,1.5 5.63223,0.48815 5.76901,0.57113 5.76901,3.5 0,2.94444 -0.11111,3.00926 -6,3.5 -5.16667,0.43056 -6,0.77778 -6,2.5 0,1.74359 0.83333,2.0641 6.5,2.5 6.48363,0.49874 6.50079,0.50818 6.81336,3.75 l 0.31336,3.25 H 487.5359 475.94509 Z m 35.56129,3.5 -0.28383,-10.75 -4,-0.5 c -3.66667,-0.45833 -4,-0.75 -4,-3.5 v -3 h 13 13 v 3 c 0,2.75 -0.33333,3.04167 -4,3.5 l -4,0.5 -0.28383,10.75 -0.28383,10.75 H 516.5 512.06766 Z m 22.43871,-3.5 0.27746,-14.25 9.75913,-0.28632 c 9.25377,-0.2715 9.88812,-0.15734 12.25,2.20454 3.14152,3.14152 3.31071,8.2698 0.39514,11.97635 -1.92169,2.44304 -1.96966,2.85669 -0.57761,4.98122 0.83496,1.27432 2.20508,3.96107 3.0447,5.97057 L 560.89795,497 h -4.87567 -4.87567 l -2.5584,-5.5883 c -3.1334,-6.84425 -4.97439,-6.70187 -5.39047,0.4169 L 542.89548,497 h -4.4752 -4.47519 z M 549,477 c 0,-1.45377 -0.66667,-2 -2.44098,-2 -2.63389,0 -4.05299,1.39172 -3.05902,3 0.33992,0.55 1.71648,1 3.05902,1 1.77431,0 2.44098,-0.54623 2.44098,-2 z m 16.22254,5.75 L 565.5,468.5 h 4 4 l 0.27746,14.25 0.27745,14.25 H 569.5 564.94509 Z m 16,0 L 581.5,468.5 h 11 11 v 3 c 0,2.96101 -0.0815,3.0065 -6.26695,3.5 -3.44682,0.275 -6.26787,0.95 -6.26901,1.5 -10e-4,0.55 2.59399,1.225 5.76695,1.5 5.63223,0.48815 5.76901,0.57113 5.76901,3.5 0,2.94444 -0.11111,3.00926 -6,3.5 -5.16667,0.43056 -6,0.77778 -6,2.5 0,1.74359 0.83333,2.0641 6.5,2.5 6.48363,0.49874 6.50079,0.50818 6.81336,3.75 l 0.31336,3.25 H 592.5359 580.94509 Z m 36.39716,13.44368 c -1.72722,-2.7947 -9.58161,-25.85056 -9.17099,-26.92063 0.26869,-0.70018 2.06181,-1.27305 3.98472,-1.27305 4.06469,0 4.53387,0.67995 7.07271,10.25 0.98488,3.7125 2.33212,6.75 2.99386,6.75 0.66174,0 2.00898,-3.0375 2.99386,-6.75 2.53884,-9.57005 3.00802,-10.25 7.07271,-10.25 1.92641,0 3.71774,0.57733 3.98961,1.28582 0.27138,0.70719 -1.66267,7.11969 -4.29788,14.25 L 627.467,496.5 l -4.6429,0.30109 c -2.5536,0.1656 -4.89558,-0.10773 -5.2044,-0.60741 z m 18.4041,0.55632 c 0.0131,-0.1375 1.99173,-6.55 4.39697,-14.25 l 4.37317,-14 h 6.26532 6.26531 l 4.76293,14.25 4.76292,14.25 h -4.85566 c -4.27415,0 -4.89393,-0.26946 -5.17521,-2.25 -0.28273,-1.99073 -0.89571,-2.25 -5.31955,-2.25 -4.42384,0 -5.03682,0.25927 -5.31955,2.25 -0.28204,1.98589 -0.89829,2.25 -5.25,2.25 -2.71175,0 -4.91974,-0.1125 -4.90665,-0.25 z m 17.19746,-14.76973 c -0.44334,-3.87727 -2.01751,-4.64638 -3.19125,-1.55919 -1.21553,3.19708 -0.5323,4.83365 1.81323,4.3433 1.09734,-0.22941 1.56264,-1.16948 1.37802,-2.78411 z M 670.22254,482.75 670.5,468.5 h 4 4 l 0.5,10.5 0.5,10.5 5.5,0.5 c 5.35427,0.48675 5.5083,0.58611 5.81336,3.75 l 0.31336,3.25 H 680.5359 669.94509 Z M 0,225.00389 V 0 H 124.96922 249.93844 L 250.21922,12.25 250.5,24.5 275,25 l 24.5,0.5 0.5,12 0.5,12 12,0.5 12,0.5 0.5,24.5 0.5,24.5 12,0.5 12,0.5 V 225 349.5 l -12,0.5 -12,0.5 -0.5,24.5 -0.5,24.5 -12,0.5 -12,0.5 -0.5,12 -0.5,12 -24.5,0.5 -24.5,0.5 -0.5,12 -0.5,12 -124.75,0.25389 L 0,450.00778 Z M 225,337.5 l 0.5,-12 12,-0.5 12,-0.5 V 225 125.5 l -12,-0.5 -12,-0.5 -0.5,-12 -0.5,-12 h -62 -62 L 100.24274,224 c -0.1415,67.925 -0.0418,124.06594 0.22154,124.75764 0.37894,0.99531 13.36513,1.2039 62.25727,1 L 224.5,349.5 Z M 400.67599,449.34265 C 400.30419,448.97086 400,347.71667 400,224.33333 V 0 h 37.46922 37.46922 l 0.28078,12.25 0.28078,12.25 12,0.5 12,0.5 0.5,24.5 0.5,24.5 12,0.5 12,0.5 0.5,24.5 0.5,24.5 12,0.5 12,0.5 0.5,12 0.5,12 h 24.5 24.5 l 0.5,-12 0.5,-12 12,-0.5 12,-0.5 0.5,-24.5 0.5,-24.5 12,-0.5 12,-0.5 0.5,-24.5 0.5,-24.5 12,-0.5 12,-0.5 0.28078,-12.25 L 675.06156,0 H 712.53078 750 V 225.00934 450.01867 L 700.25,449.75934 650.5,449.5 l -0.5,-112 -0.5,-112 h -12 -12 l -0.5,24.5 -0.5,24.5 -12,0.5 -12,0.5 -0.5,12 -0.5,12 H 575 550.5 l -0.5,-12 -0.5,-12 -12,-0.5 -12,-0.5 -0.5,-24.5 -0.5,-24.5 h -12 -12 l -0.5,112 -0.5,112 -49.07401,0.25932 c -26.99071,0.14263 -49.37821,-0.0449 -49.75,-0.41667 z"
       style="fill:#000000" />
  </g>
</svg>
